<?xml version="1.0" encoding="utf-8"?>
<svg width="1000px" height="1000px" viewBox="0 0 1000 1000" version="1.1" xmlns:xlink="http://www.w3.org/1999/xlink" xmlns="http://www.w3.org/2000/svg">
  <defs>
    <linearGradient gradientUnits="userSpaceOnUse" x1="0" y1="0" x2="1000.00006" y2="1000.00006" id="gradient_1">
      <stop offset="0%" stop-color="#32329B" />
      <stop offset="100%" stop-color="#000000" />
    </linearGradient>
    <rect width="1000" height="1000" id="artboard_1" />
    <clipPath id="clip_1">
      <use xlink:href="#artboard_1" clip-rule="evenodd" />
    </clipPath>
  </defs>
  <g id="Logo" clip-path="url(#clip_1)">
    <path d="M555.251 40.1424L920.277 305.349Q921.77 306.434 923.22 307.577Q924.67 308.719 926.073 309.918Q927.477 311.117 928.832 312.37Q930.188 313.623 931.493 314.928Q932.798 316.233 934.051 317.589Q935.304 318.944 936.503 320.348Q937.702 321.752 938.845 323.201Q939.987 324.651 941.072 326.144Q942.158 327.638 943.183 329.172Q944.209 330.707 945.173 332.281Q946.138 333.855 947.039 335.466Q947.941 337.076 948.779 338.721Q949.618 340.366 950.39 342.042Q951.163 343.718 951.87 345.424Q952.576 347.129 953.215 348.861Q953.854 350.593 954.424 352.348Q954.995 354.104 955.496 355.88Q955.997 357.657 956.428 359.452Q956.858 361.247 957.219 363.057Q957.579 364.868 957.867 366.691Q958.156 368.514 958.373 370.347Q958.59 372.18 958.735 374.02Q958.88 375.861 958.952 377.705Q959.025 379.549 959.025 381.395Q959.025 383.241 958.952 385.086Q958.88 386.93 958.735 388.771Q958.59 390.611 958.373 392.444Q958.156 394.277 957.867 396.1Q957.579 397.923 957.219 399.734Q956.859 401.544 956.428 403.339Q955.997 405.134 955.496 406.911Q954.995 408.687 954.424 410.443L814.997 839.556Q814.427 841.312 813.788 843.044Q813.149 844.776 812.443 846.481Q811.737 848.186 810.964 849.863Q810.191 851.539 809.353 853.184Q808.515 854.828 807.613 856.439Q806.711 858.049 805.746 859.623Q804.782 861.197 803.756 862.732Q802.731 864.267 801.646 865.76Q800.561 867.254 799.418 868.703Q798.275 870.153 797.077 871.557Q795.878 872.96 794.625 874.316Q793.372 875.671 792.066 876.976Q790.761 878.282 789.406 879.535Q788.05 880.788 786.647 881.986Q785.243 883.185 783.793 884.328Q782.344 885.471 780.85 886.556Q779.357 887.641 777.822 888.666Q776.287 889.692 774.714 890.656Q773.14 891.621 771.529 892.523Q769.919 893.425 768.274 894.263Q766.629 895.101 764.953 895.874Q763.277 896.646 761.571 897.353Q759.866 898.059 758.134 898.698Q756.402 899.337 754.647 899.907Q752.891 900.478 751.114 900.979Q749.338 901.48 747.543 901.911Q745.748 902.342 743.938 902.702Q742.127 903.062 740.304 903.351Q738.481 903.64 736.648 903.857Q734.815 904.074 732.974 904.218Q731.134 904.363 729.29 904.436Q727.445 904.508 725.599 904.508L274.403 904.509Q272.557 904.509 270.713 904.437Q268.868 904.364 267.028 904.22Q265.188 904.075 263.355 903.858Q261.521 903.641 259.698 903.352Q257.875 903.063 256.065 902.703Q254.254 902.343 252.459 901.912Q250.664 901.481 248.888 900.98Q247.111 900.479 245.356 899.909Q243.6 899.338 241.868 898.699Q240.136 898.061 238.431 897.354Q236.726 896.648 235.049 895.875Q233.373 895.102 231.728 894.264Q230.084 893.426 228.473 892.524Q226.862 891.622 225.289 890.658Q223.715 889.693 222.18 888.668Q220.645 887.642 219.152 886.557Q217.658 885.472 216.209 884.33Q214.759 883.187 213.355 881.988Q211.952 880.789 210.596 879.536Q209.241 878.283 207.936 876.978Q206.63 875.673 205.377 874.317Q204.124 872.962 202.925 871.558Q201.727 870.154 200.584 868.705Q199.441 867.255 198.356 865.762Q197.271 864.268 196.246 862.734Q195.22 861.199 194.256 859.625Q193.291 858.051 192.389 856.44Q191.487 854.83 190.649 853.185Q189.811 851.541 189.038 849.864Q188.265 848.188 187.559 846.482Q186.853 844.777 186.214 843.045Q185.575 841.313 185.004 839.558L45.5755 410.445Q45.0051 408.69 44.504 406.913Q44.0029 405.137 43.572 403.342Q43.1411 401.547 42.781 399.736Q42.4208 397.926 42.1321 396.103Q41.8433 394.279 41.6263 392.446Q41.4094 390.613 41.2645 388.773Q41.1197 386.933 41.0472 385.088Q40.9747 383.244 40.9747 381.398Q40.9747 379.552 41.0472 377.708Q41.1197 375.863 41.2645 374.023Q41.4093 372.183 41.6263 370.35Q41.8432 368.517 42.132 366.693Q42.4207 364.87 42.7808 363.06Q43.141 361.249 43.5719 359.454Q44.0028 357.659 44.5038 355.883Q45.0049 354.106 45.5753 352.351Q46.1457 350.595 46.7846 348.863Q47.4235 347.131 48.1299 345.426Q48.8363 343.721 49.6091 342.044Q50.3819 340.368 51.2199 338.723Q52.0579 337.079 52.9599 335.468Q53.8618 333.857 54.8263 332.284Q55.7908 330.71 56.8163 329.175Q57.8418 327.64 58.9268 326.147Q60.0118 324.653 61.1546 323.204Q62.2974 321.754 63.4962 320.35Q64.695 318.947 65.948 317.591Q67.201 316.236 68.5062 314.93Q69.8115 313.625 71.167 312.372Q72.5225 311.119 73.9261 309.92Q75.3297 308.722 76.7794 307.579Q78.229 306.436 79.7223 305.351L444.749 40.1426Q446.242 39.0576 447.777 38.032Q449.312 37.0065 450.886 36.042Q452.46 35.0775 454.07 34.1756Q455.681 33.2736 457.325 32.4356Q458.97 31.5976 460.646 30.8247Q462.323 30.0519 464.028 29.3455Q465.734 28.6391 467.465 28.0002Q469.197 27.3613 470.953 26.7909Q472.708 26.2205 474.485 25.7194Q476.262 25.2184 478.056 24.7875Q479.851 24.3565 481.662 23.9964Q483.472 23.6363 485.295 23.3475Q487.119 23.0588 488.952 22.8418Q490.785 22.6248 492.625 22.48Q494.465 22.3352 496.31 22.2627Q498.154 22.1902 500 22.1902Q501.846 22.1902 503.691 22.2627Q505.535 22.3352 507.375 22.48Q509.215 22.6248 511.048 22.8418Q512.882 23.0587 514.705 23.3475Q516.528 23.6363 518.338 23.9964Q520.149 24.3565 521.944 24.7874Q523.739 25.2183 525.515 25.7194Q527.292 26.2204 529.047 26.7908Q530.803 27.3612 532.535 28.0001Q534.266 28.639 535.972 29.3454Q537.677 30.0518 539.354 30.8246Q541.03 31.5974 542.675 32.4355Q544.319 33.2735 545.93 34.1754Q547.541 35.0774 549.114 36.0419Q550.688 37.0064 552.223 38.0319Q553.758 39.0574 555.251 40.1424L555.251 40.1424Z" id="Polygon" fill="url(#gradient_1)" fill-rule="evenodd" stroke="none" artboard="bbb2723f-1975-4ca4-add2-80157dceed49" />
    <g id="P" fill="#FFFFFF" transform="translate(379 245)" artboard="95182aa4-710a-49f4-b0f2-d9b259c91d4e">
      <path d="M26.4 395.039L26.4 115.039L141.6 115.039Q168 115.039 188.2 125.639Q208.4 136.239 219.8 155.439Q231.2 174.639 231.2 201.039L231.2 206.639Q231.2 232.639 219.4 252.039Q207.6 271.439 187.4 282.039Q167.2 292.639 141.6 292.639L79.2 292.639L79.2 395.039L26.4 395.039ZM79.2 244.639L136.4 244.639Q155.2 244.639 166.8 234.239Q178.4 223.839 178.4 205.839L178.4 201.839Q178.4 183.839 166.8 173.439Q155.2 163.039 136.4 163.039L79.2 163.039L79.2 244.639Z" />
    </g>
  </g>
</svg>